<svg xmlns="http://www.w3.org/2000/svg" width="25.311" height="25.311" viewBox="0 0 25.311 25.311"><defs><style>.a{fill:#fff;}</style></defs><path class="a" d="M3.708,25.311h8.256v-9H9V13.348h2.966V9.64a3.712,3.712,0,0,1,3.708-3.708h3.708V8.9H16.413a1.485,1.485,0,0,0-1.483,1.483v2.966h4.315l-.494,2.966H14.93v9H21.6A3.712,3.712,0,0,0,25.311,21.6V3.708A3.712,3.712,0,0,0,21.6,0H3.708A3.712,3.712,0,0,0,0,3.708V21.6A3.712,3.712,0,0,0,3.708,25.311ZM1.483,3.708A2.227,2.227,0,0,1,3.708,1.483H21.6a2.227,2.227,0,0,1,2.225,2.225V21.6A2.227,2.227,0,0,1,21.6,23.828H16.413V17.8h3.594L21,11.865H16.413V10.381h4.449V4.449H15.671A5.2,5.2,0,0,0,10.48,9.64v2.225H7.514V17.8H10.48v6.031H3.708A2.227,2.227,0,0,1,1.483,21.6Zm0,0"/></svg>