<svg xmlns="http://www.w3.org/2000/svg" width="25.122" height="25.122" viewBox="0 0 25.122 25.122"><defs><style>.a{fill:#fff;}</style></defs><g transform="translate(-1116.843 -99)"><g transform="translate(1116.843 99)"><path class="a" d="M23.584,0H1.538A1.54,1.54,0,0,0,0,1.538V23.584a1.54,1.54,0,0,0,1.538,1.538H23.584a1.54,1.54,0,0,0,1.538-1.538V1.538A1.54,1.54,0,0,0,23.584,0ZM24.1,23.584a.513.513,0,0,1-.513.513H1.538a.513.513,0,0,1-.513-.513V1.538a.513.513,0,0,1,.513-.513H23.584a.513.513,0,0,1,.513.513Z"/><path class="a" d="M66.849,95.214a2.9,2.9,0,0,0-.862.14l-.032.011-16.283,6.306a.511.511,0,0,0-.1.052,1.263,1.263,0,0,0-.529.894,1.6,1.6,0,0,0,.59,1.286c.911.883,3,1.262,3.828,1.382l1.687,4.58a.512.512,0,0,0,.023.052,1.337,1.337,0,0,0,1.142.739,1.758,1.758,0,0,0,1.217-.606l1.489-1.489,4.005,2.827.011.008a1.39,1.39,0,0,0,.733.214,1.436,1.436,0,0,0,1.292-.924c.525-1.049,3.194-12.5,3.5-13.8a.512.512,0,0,0,.013-.116A1.589,1.589,0,0,0,66.849,95.214Zm-2.706,15.013c-.082.163-.213.357-.375.357a.386.386,0,0,1-.168-.045l-4.343-3.066a.513.513,0,0,0-.658.056L56.8,109.324c-.284.284-.448.306-.492.306-.1,0-.188-.117-.218-.162l-1.779-4.829a.513.513,0,0,0-.423-.332c-.747-.085-2.839-.456-3.547-1.141-.271-.262-.284-.412-.282-.452a.2.2,0,0,1,.058-.117l16.186-6.268a1.867,1.867,0,0,1,.541-.089c.157,0,.659.035.694.477C66.364,101.784,64.5,109.517,64.143,110.227Z" transform="translate(-46.524 -90.332)"/><path class="a" d="M170.51,135.561l-10.254,5.9a.513.513,0,0,0-.225.624l1.538,4.1a.513.513,0,0,0,.445.332h.035a.513.513,0,0,0,.451-.27l1.756-3.262,6.864-6.61a.513.513,0,0,0-.611-.814Zm-7.022,6.741a.514.514,0,0,0-.1.126l-1.259,2.339-.989-2.637,6.262-3.6Z" transform="translate(-151.796 -128.546)"/></g></g></svg>