<svg xmlns="http://www.w3.org/2000/svg" width="25.31" height="25.311" viewBox="0 0 25.31 25.311"><defs><style>.a{fill:#fff;}</style></defs><g transform="translate(0 -0.001)"><path class="a" d="M12.34,5.838a6.494,6.494,0,1,0,6.494,6.494A6.494,6.494,0,0,0,12.34,5.838Zm0,10.709a4.215,4.215,0,1,1,4.215-4.215A4.214,4.214,0,0,1,12.34,16.547Z" transform="translate(0.319 0.319)"/><path class="a" d="M17.873.08c-2.329-.109-8.1-.1-10.427,0A7.563,7.563,0,0,0,2.136,2.127C-.3,4.561.013,7.841.013,12.651c0,4.923-.274,8.127,2.123,10.524C4.579,25.617,7.906,25.3,12.659,25.3c4.876,0,6.56,0,8.284-.664,2.344-.91,4.114-3.006,4.287-6.769.11-2.33.1-8.1,0-10.427C25.022,2.994,22.637.3,17.873.08Zm3.686,21.484c-1.6,1.6-3.809,1.453-8.93,1.453-5.273,0-7.387.078-8.93-1.469C1.921,19.78,2.243,16.94,2.243,12.634c0-5.827-.6-10.023,5.25-10.322,1.344-.047,1.739-.063,5.121-.063l.047.032c5.62,0,10.029-.588,10.294,5.258.06,1.334.074,1.735.074,5.112,0,5.212.1,7.339-1.47,8.915Z" transform="translate(0 0)"/><circle class="a" cx="1.518" cy="1.518" r="1.518" transform="translate(17.893 4.383)"/></g></svg>