<svg id="mail" xmlns="http://www.w3.org/2000/svg" width="45.333" height="34" viewBox="0 0 45.333 34">
  <g id="Group_98" data-name="Group 98">
    <path id="Path_126" data-name="Path 126" d="M7.248,66.812c6.219,5.371,17.13,14.819,20.337,17.765a1.869,1.869,0,0,0,2.741,0c3.21-2.949,14.121-12.4,20.34-17.769a.975.975,0,0,0,.133-1.328A3.723,3.723,0,0,0,47.835,64H10.078a3.723,3.723,0,0,0-2.963,1.483A.975.975,0,0,0,7.248,66.812Z" transform="translate(-6.29 -64)" fill="#5a598e"/>
    <path id="Path_127" data-name="Path 127" d="M44.786,126.5a.943.943,0,0,0-1.007.136c-6.9,5.827-15.706,13.3-18.477,15.784a3.835,3.835,0,0,1-5.272,0c-2.953-2.651-12.842-11.026-18.475-15.782A.945.945,0,0,0,0,127.353v23.663a3.774,3.774,0,0,0,3.778,3.764H41.556a3.774,3.774,0,0,0,3.778-3.764V127.353A.94.94,0,0,0,44.786,126.5Z" transform="translate(0 -120.779)" fill="#5a598e"/>
  </g>
</svg>
