<svg id="phone" xmlns="http://www.w3.org/2000/svg" width="35" height="35" viewBox="0 0 35 35">
  <path id="Path_122" data-name="Path 122" d="M34.32,27.831l-3.88-2.587-3.449-2.3a1.528,1.528,0,0,0-2.052.333L22.8,26.022a1.52,1.52,0,0,1-1.941.4,24.851,24.851,0,0,1-6.94-5.348,25.028,25.028,0,0,1-5.348-6.94,1.52,1.52,0,0,1,.4-1.941l2.744-2.134a1.528,1.528,0,0,0,.333-2.052L9.827,4.667,7.17.681A1.528,1.528,0,0,0,5.113.218L2.048,2.056a3.745,3.745,0,0,0-1.7,2.2c-.838,3.056-1.007,9.8,9.8,20.6s17.544,10.634,20.6,9.8a3.744,3.744,0,0,0,2.2-1.7l1.839-3.065A1.528,1.528,0,0,0,34.32,27.831Z" transform="translate(0 0)" fill="#5a598e"/>
  <path id="Path_123" data-name="Path 123" d="M282.991,62.811a8.671,8.671,0,0,1,8.661,8.661.51.51,0,0,0,1.019,0,9.691,9.691,0,0,0-9.68-9.68.509.509,0,1,0,0,1.019Z" transform="translate(-260.729 -58.226)" fill="#5a598e"/>
  <path id="Path_124" data-name="Path 124" d="M282.991,115.775a5.611,5.611,0,0,1,5.6,5.6.51.51,0,0,0,1.019,0,6.631,6.631,0,0,0-6.623-6.623.51.51,0,1,0,0,1.019Z" transform="translate(-262.214 -106.523)" fill="#5a598e"/>
  <path id="Path_125" data-name="Path 125" d="M282.991,168.742a2.55,2.55,0,0,1,2.547,2.547.51.51,0,1,0,1.019,0,3.57,3.57,0,0,0-3.566-3.566.509.509,0,1,0,0,1.019Z" transform="translate(-262.691 -155.972)" fill="#5a598e"/>
</svg>
