<svg xmlns="http://www.w3.org/2000/svg" width="24.696" height="26.965" viewBox="0 0 24.696 26.965"><defs><style>.a{fill:#fff;}</style></defs><g transform="translate(-1.38 0.013)"><path class="a" d="M25.824,15.6c.8-6.766-.386-11.037-2.532-12.969h0C19.828-.672,8.129-1.16,3.984,2.775,2.123,4.7,1.468,7.526,1.4,11.024S1.239,21.078,7.346,22.856h.006l-.006,2.715s-.042,1.1.661,1.321c.8.26,1.167-.25,3.667-3.236a22.876,22.876,0,0,0,7.756-.589c.844-.283,5.621-.915,6.393-7.469ZM12.087,21.746s-2.646,3.3-3.469,4.156c-.269.278-.565.253-.56-.3,0-.363.02-4.508.02-4.508C2.9,19.609,3.205,14.028,3.261,11.108S3.852,5.8,5.428,4.184C9.064.775,19.321,1.537,21.934,3.993,25.129,6.826,23.992,14.827,24,15.1c-.657,5.471-4.527,5.818-5.239,6.055a21.105,21.105,0,0,1-6.672.59Z" transform="translate(0 0)"/><path class="a" d="M12.257,4.3a.34.34,0,0,0,0,.679C15.61,5,18.372,7.339,18.4,11.626a.329.329,0,1,0,.657-.006h0c-.036-4.619-3.051-7.3-6.8-7.324Z" transform="translate(1.293 0.528)"/><path class="a" d="M16.6,10.723a.329.329,0,1,0,.657.016,4.547,4.547,0,0,0-4.467-4.866.341.341,0,0,0-.046.679A3.876,3.876,0,0,1,16.6,10.723Z" transform="translate(1.356 0.721)"/><path class="a" d="M16.66,13.728a1.037,1.037,0,0,0-1.353.194l-.488.632a.873.873,0,0,1-.712.278A6.515,6.515,0,0,1,9.819,10.4a.944.944,0,0,1,.268-.736l.611-.505a1.125,1.125,0,0,0,.187-1.4A14.588,14.588,0,0,0,9.213,5.34.9.9,0,0,0,8,5.135h-.01C7.017,5.7,5.954,6.766,6.294,7.86c.58,1.154,1.647,4.833,5.046,7.612a19.4,19.4,0,0,0,5.2,2.973l.01.016c1.057.352,2.086-.752,2.635-1.752V16.7a.962.962,0,0,0-.193-1.242,13.234,13.234,0,0,0-2.33-1.731Z" transform="translate(0.594 0.613)"/><path class="a" d="M13.2,8.178c1.079.063,1.6.626,1.658,1.784a.329.329,0,1,0,.657-.031A2.253,2.253,0,0,0,13.239,7.5a.34.34,0,0,0-.036.679Z" transform="translate(1.411 0.921)"/></g></svg>