<svg xmlns="http://www.w3.org/2000/svg" width="25.398" height="40.514" viewBox="0 0 25.398 40.514">
  <g id="ukraina_gerb" transform="translate(-141.024 -57.18)">
    <path id="Path_2" data-name="Path 2" d="M153.742,57.181a.17.17,0,0,0,.034.031,1.547,1.547,0,0,1,.461.384,3.4,3.4,0,0,1,.421.642,5.847,5.847,0,0,1,.477,1.284,6.951,6.951,0,0,1,.163.861,7.052,7.052,0,0,1,.05.757c0,.055,0,.11.01.165.035.356.05.712.061,1.069.01.315.015.63.011.945s-.017.616-.027.924c-.009.272-.019.545-.033.817q-.024.486-.056.972c-.043.667-.09,1.335-.134,2-.021.321-.039.642-.055.963q-.026.511-.045,1.021c-.009.23-.012.461-.016.691,0,.263-.008.526-.006.789,0,.445.013.889.044,1.333.02.279.039.557.068.835.035.333.079.664.141.993.026.137.053.274.076.412.012.073.012.149.023.222.03.205.059.411.1.615.1.527.228,1.046.367,1.564.124.458.256.912.408,1.362.11.326.219.652.336.976.16.439.332.874.521,1.3.14.318.285.634.443.943a12.2,12.2,0,0,0,.632,1.108c.078.119.043.11.2.1a3.429,3.429,0,0,0,.59-.068,2.592,2.592,0,0,0,.923-.376,2.1,2.1,0,0,0,.9-1.3,2.136,2.136,0,0,0-.091-1.32,1.944,1.944,0,0,0-1.478-1.239,2.3,2.3,0,0,0-.6-.045c-.023,0-.045,0-.068,0a.076.076,0,0,1-.019-.006c-.021-.022-.01-.048-.006-.072q.038-.255.078-.51l.12-.78q.078-.505.155-1.011c.049-.324.1-.648.147-.973.046-.3.095-.6.141-.9.035-.228.069-.456.1-.684q.074-.491.149-.982.069-.448.138-.9c.053-.343.107-.687.159-1.03.056-.366.108-.732.164-1.1.066-.43.134-.86.2-1.29.036-.231.07-.462.1-.693.051-.334.1-.667.153-1s.1-.654.147-.982a4.149,4.149,0,0,1,.183-.736,8.18,8.18,0,0,1,.636-1.441,7.6,7.6,0,0,1,.846-1.212,8.1,8.1,0,0,1,1.682-1.483,10.328,10.328,0,0,1,1.421-.789c.348-.16.7-.307,1.059-.446l.051-.018a.219.219,0,0,1,.014.046c0,.032,0,.065,0,.1q0,15.146,0,30.293a.417.417,0,0,1-.009.139.311.311,0,0,1-.054.011c-.1,0-.2.005-.3.005H159.6l-.134,0a.266.266,0,0,0-.037.105,9.039,9.039,0,0,1-.719,2.084,9.616,9.616,0,0,1-1.159,1.82,11.092,11.092,0,0,1-.931,1.021,13.9,13.9,0,0,1-1.435,1.211c-.45.332-.915.64-1.392.931-.022.013-.045.025-.071.04-.022-.011-.046-.021-.068-.035q-.746-.452-1.448-.97a13.834,13.834,0,0,1-1.241-1.035,10.853,10.853,0,0,1-1.613-1.894,9.382,9.382,0,0,1-.921-1.767,9.146,9.146,0,0,1-.425-1.416c-.006-.028-.015-.056-.024-.087a.659.659,0,0,0-.068-.011c-.032,0-.065,0-.1,0h-6.45c-.1,0-.195,0-.292-.005a.383.383,0,0,1-.043-.006.391.391,0,0,1-.011-.055c0-.029,0-.058,0-.088q0-15.151,0-30.3a.4.4,0,0,1,.009-.131.3.3,0,0,1,.046.01c.475.184.945.382,1.4.609a9.831,9.831,0,0,1,1.1.633,8.365,8.365,0,0,1,1.174.946,7.642,7.642,0,0,1,1.462,1.958,7.9,7.9,0,0,1,.534,1.273c.034.108.072.216.1.326s.046.229.065.344q.091.577.179,1.155c.056.369.109.738.165,1.107.065.427.133.853.2,1.28.036.234.07.469.106.7.05.33.1.661.152.991s.1.655.148.982c.046.3.1.6.142.9.035.225.068.449.1.674l.149.982q.072.472.145.944c.051.327.1.654.153.981.036.237.07.475.106.713.048.318.1.635.146.953.023.151.047.3.069.452,0,.032.007.064.01.092-.028.031-.059.02-.086.021-.094,0-.188,0-.282,0a2.114,2.114,0,0,0-.98.29,1.974,1.974,0,0,0-.846,1.035,2.085,2.085,0,0,0-.134.744,2.146,2.146,0,0,0,.617,1.541,2.291,2.291,0,0,0,.847.54,3,3,0,0,0,.913.185c.055,0,.11,0,.165.008a.1.1,0,0,0,.1-.055c.1-.162.2-.318.3-.481a15.926,15.926,0,0,0,.8-1.592c.17-.386.326-.778.475-1.173.184-.486.348-.978.5-1.474.177-.56.332-1.127.473-1.7.08-.325.152-.651.212-.98a6.689,6.689,0,0,0,.094-.675,2.146,2.146,0,0,1,.04-.24,16.033,16.033,0,0,0,.22-1.63c.036-.424.055-.849.067-1.274.009-.308.015-.617.012-.925,0-.243-.01-.487-.016-.73s-.012-.513-.025-.769c-.03-.574-.064-1.147-.1-1.721q-.02-.34-.042-.68c-.025-.379-.052-.758-.077-1.137-.01-.146-.017-.292-.025-.437-.012-.22-.027-.441-.037-.661-.012-.263-.02-.525-.031-.788-.019-.454-.023-.909-.02-1.363,0-.386.013-.772.043-1.158.011-.146.026-.291.035-.437.006-.094.005-.188.007-.282a5.655,5.655,0,0,1,.071-.727,6.9,6.9,0,0,1,.3-1.209,4.8,4.8,0,0,1,.551-1.136,2.243,2.243,0,0,1,.38-.441,1.348,1.348,0,0,1,.237-.17c.022-.012.051-.016.06-.045Zm-5.3,32.723c.01.033.018.054.024.076q.054.227.108.455c.046.2.087.393.14.587.071.256.16.508.256.756a9.17,9.17,0,0,0,.383.841,8.543,8.543,0,0,0,.846,1.329,10,10,0,0,0,1.143,1.261c.326.3.659.6,1.013.867q.628.478,1.294.9c.024.015.05.028.075.042.03-.017.055-.031.08-.047.136-.089.272-.177.407-.268a14.884,14.884,0,0,0,1.311-.978,12.662,12.662,0,0,0,1.051-.986,9.79,9.79,0,0,0,.954-1.181,9.086,9.086,0,0,0,.75-1.319q.171-.372.3-.758a7.1,7.1,0,0,0,.224-.756c.054-.241.111-.481.167-.72a.161.161,0,0,1,.043-.1h.1l6.051,0h.565a.168.168,0,0,0,.107-.016.158.158,0,0,0,.008-.035q0-14.533,0-29.065a.082.082,0,0,0-.009-.026.125.125,0,0,0-.093.023c-.148.068-.3.135-.441.206a9.28,9.28,0,0,0-1.3.768,7.119,7.119,0,0,0-1.112.958c-.164.175-.322.357-.471.545a7.486,7.486,0,0,0-.453.657,5.9,5.9,0,0,0-.3.557c-.071.146-.143.292-.206.441-.106.251-.19.511-.274.77a1.685,1.685,0,0,0-.063.245c-.051.311-.1.622-.144.934q-.1.674-.207,1.347c-.05.33-.1.661-.15.992-.033.218-.069.436-.1.654q-.075.486-.148.973t-.15.982c-.035.231-.069.462-.1.693-.067.433-.135.866-.2,1.3-.05.324-.1.648-.146.973q-.086.563-.174,1.126-.082.53-.164,1.059-.07.457-.139.915c-.02.128-.039.257-.058.385a.233.233,0,0,0,0,.111.1.1,0,0,0,.021.013c.022.006.044.012.066.015a2.661,2.661,0,0,1,.631.194,2.508,2.508,0,0,1,1.027.856,2.61,2.61,0,0,1,.377.8,2.8,2.8,0,0,1,.1.9,2.953,2.953,0,0,1-.058.453,2.158,2.158,0,0,1-.11.383c-.049.12-.1.239-.16.354a2.4,2.4,0,0,1-.239.367,2.687,2.687,0,0,1-.5.493,2.237,2.237,0,0,1-.4.256c-.134.065-.271.125-.409.18a2.7,2.7,0,0,1-.525.144c-.153.027-.308.048-.463.061s-.337.015-.506.021c-.039,0-.077,0-.116,0-.009-.012-.018-.022-.025-.032-.1-.161-.211-.32-.309-.485-.135-.226-.264-.454-.392-.684q-.213-.383-.4-.781c-.184-.394-.358-.793-.516-1.2-.132-.339-.264-.677-.386-1.02-.167-.468-.322-.94-.457-1.418-.112-.4-.223-.794-.326-1.193-.073-.283-.133-.569-.194-.854-.054-.257-.1-.516-.13-.778-.014-.119-.028-.239-.047-.357-.039-.25-.084-.5-.121-.75-.032-.215-.058-.431-.082-.647-.021-.2-.037-.394-.052-.592-.012-.165-.02-.33-.028-.5-.01-.214-.021-.428-.027-.642,0-.162-.006-.325,0-.487,0-.373.008-.747.016-1.12.006-.292.017-.584.028-.876.008-.2.021-.4.031-.593.01-.175.019-.35.03-.525.017-.275.035-.551.052-.826.015-.24.027-.48.044-.719q.073-1.01.119-2.022.018-.4.03-.8c.008-.282.017-.565.018-.847s-.008-.552-.014-.828c0-.136-.009-.272-.017-.409-.015-.269-.036-.538-.048-.807a7.078,7.078,0,0,0-.214-1.472,4.917,4.917,0,0,0-.5-1.253,2.357,2.357,0,0,0-.293-.412.451.451,0,0,0-.045-.038.325.325,0,0,0-.04.034c-.041.05-.083.1-.122.152a3.611,3.611,0,0,0-.48.91,6.365,6.365,0,0,0-.271.944,7.129,7.129,0,0,0-.132,1.013c-.018.308-.03.616-.049.924s-.034.642-.032.963c0,.26,0,.52,0,.779.008.337.023.675.039,1.012.016.357.037.713.056,1.07.015.266.029.532.046.8.049.774.1,1.548.147,2.323.024.4.041.791.056,1.187q.015.384.018.769c0,.542,0,1.084-.016,1.627,0,.071,0,.143-.009.214-.009.12-.022.239-.031.359-.024.291-.04.583-.072.873-.028.261-.071.521-.11.781s-.1.523-.12.789a1.65,1.65,0,0,1-.02.164c-.049.268-.1.537-.148.8-.064.325-.146.646-.23.966-.119.452-.245.9-.389,1.346-.092.284-.183.569-.283.85-.128.361-.263.719-.4,1.077q-.136.354-.289.7c-.1.226-.206.448-.311.671-.168.355-.349.7-.548,1.043-.155.263-.323.518-.485.776-.009.013-.019.025-.03.039h-.04c-.136-.005-.272-.015-.409-.016a3.507,3.507,0,0,1-.552-.054,3.359,3.359,0,0,1-.855-.258,2.733,2.733,0,0,1-.36-.193,2.786,2.786,0,0,1-.759-.719,2.683,2.683,0,0,1-.4-.829,2.722,2.722,0,0,1-.106-.9,2.876,2.876,0,0,1,.138-.754,2.706,2.706,0,0,1,.375-.733,2.483,2.483,0,0,1,.684-.643,2.533,2.533,0,0,1,.929-.36.28.28,0,0,0,.1-.029.657.657,0,0,0-.014-.155q-.045-.294-.09-.587c-.036-.234-.069-.469-.105-.7-.046-.3-.1-.6-.141-.9-.05-.324-.1-.648-.147-.973s-.1-.667-.153-1c-.036-.234-.07-.469-.106-.7-.046-.3-.094-.6-.14-.9-.05-.327-.1-.655-.148-.982s-.1-.667-.153-1q-.054-.356-.109-.713c-.045-.3-.092-.59-.137-.885-.05-.327-.1-.655-.148-.982-.054-.353-.109-.706-.163-1.059q-.065-.419-.129-.838a1.207,1.207,0,0,0-.028-.163,9.287,9.287,0,0,0-.316-.91c-.061-.147-.136-.288-.2-.433a6.093,6.093,0,0,0-.617-1.036,7,7,0,0,0-.857-.982,8.144,8.144,0,0,0-1.153-.909,9.244,9.244,0,0,0-1.071-.6c-.117-.056-.234-.112-.352-.166a.3.3,0,0,0-.122-.041.315.315,0,0,0-.011.048c0,.032,0,.065,0,.1V89.74c0,.032,0,.065,0,.1a.383.383,0,0,0,.014.059c.036,0,.067,0,.1,0,.458,0,.916,0,1.374,0h5.355Z" transform="translate(0 0)" fill="#5a598e"/>
    <path id="Path_3" data-name="Path 3" d="M176.217,124.5h-5.355c-.458,0-.916,0-1.374,0-.032,0-.064,0-.1,0a.386.386,0,0,1-.014-.059c0-.032,0-.065,0-.1V95.491c0-.033,0-.065,0-.1a.274.274,0,0,1,.011-.048.3.3,0,0,1,.122.041c.118.054.235.11.352.166a9.246,9.246,0,0,1,1.071.6,8.142,8.142,0,0,1,1.153.909,6.993,6.993,0,0,1,.857.982,6.1,6.1,0,0,1,.617,1.036c.066.145.14.286.2.433a9.3,9.3,0,0,1,.316.91,1.24,1.24,0,0,1,.028.163l.129.838q.082.53.163,1.059c.05.327.1.655.148.982.045.3.092.59.137.885.037.238.072.475.109.713q.077.5.153,1c.05.327.1.655.148.982.046.3.094.6.14.9.036.234.07.469.106.7q.076.5.153,1c.049.324.1.649.147.973.046.3.1.6.141.9.036.234.07.469.105.7q.044.294.09.587a.645.645,0,0,1,.014.156.284.284,0,0,1-.1.029,2.536,2.536,0,0,0-.929.36,2.484,2.484,0,0,0-.684.643,2.708,2.708,0,0,0-.375.733,2.877,2.877,0,0,0-.138.754,2.716,2.716,0,0,0,.106.9,2.675,2.675,0,0,0,.4.829,2.787,2.787,0,0,0,.759.719,2.739,2.739,0,0,0,.36.193,3.371,3.371,0,0,0,.855.258,3.539,3.539,0,0,0,.552.054c.136,0,.272.01.409.016h.04c.011-.014.021-.025.03-.039.162-.258.33-.513.485-.776.2-.338.38-.688.548-1.043.106-.223.212-.445.311-.671s.2-.466.29-.7c.138-.357.272-.716.4-1.077.1-.281.191-.566.283-.85.144-.445.27-.895.389-1.346.084-.32.166-.641.23-.966.053-.267.1-.536.148-.8a1.59,1.59,0,0,0,.021-.164c.02-.266.081-.526.12-.789s.082-.52.11-.781c.031-.29.048-.582.072-.873.01-.12.023-.239.031-.359.005-.071.006-.143.009-.214.02-.542.019-1.084.016-1.627q0-.385-.018-.769c-.016-.4-.033-.791-.056-1.187-.046-.774-.1-1.549-.147-2.323-.017-.266-.031-.531-.046-.8-.02-.356-.04-.713-.056-1.07-.016-.337-.03-.674-.039-1.012-.006-.26,0-.52,0-.78,0-.322.012-.642.032-.963s.031-.616.049-.924a7.165,7.165,0,0,1,.132-1.013,6.4,6.4,0,0,1,.271-.944,3.611,3.611,0,0,1,.48-.91c.039-.052.081-.1.122-.152a.321.321,0,0,1,.04-.034.458.458,0,0,1,.045.038,2.369,2.369,0,0,1,.293.412,4.923,4.923,0,0,1,.5,1.253,7.062,7.062,0,0,1,.214,1.472c.012.269.032.538.048.807.008.136.014.272.017.409.006.276.015.552.014.828s-.01.565-.018.847q-.012.4-.03.8-.046,1.012-.119,2.022c-.017.24-.029.479-.044.719-.017.275-.035.551-.052.826q-.016.262-.03.525c-.011.2-.024.4-.031.593-.012.292-.022.584-.028.876-.008.373-.013.747-.016,1.12,0,.162,0,.325,0,.487.007.214.017.428.027.642.008.165.016.331.028.5.015.2.031.395.052.592.023.216.05.432.082.647.037.25.082.5.121.75.018.119.033.238.047.357.03.261.075.52.13.778.06.286.121.572.194.854.1.4.214.8.326,1.193.135.478.291.95.457,1.418.122.342.254.681.386,1.02.158.405.332.8.516,1.2q.185.4.4.781c.128.23.258.459.392.684.1.164.205.323.309.485.007.011.015.02.025.032.039,0,.077,0,.116,0,.169-.006.338-.007.506-.021s.31-.034.463-.061a2.7,2.7,0,0,0,.525-.144c.139-.055.275-.116.409-.18a2.228,2.228,0,0,0,.4-.256,2.682,2.682,0,0,0,.5-.493,2.411,2.411,0,0,0,.239-.367c.059-.116.111-.234.16-.354a2.161,2.161,0,0,0,.11-.383,2.959,2.959,0,0,0,.058-.453,2.8,2.8,0,0,0-.1-.9,2.61,2.61,0,0,0-.377-.8,2.507,2.507,0,0,0-1.027-.856,2.653,2.653,0,0,0-.631-.194c-.022,0-.044-.01-.066-.015a.1.1,0,0,1-.021-.013.233.233,0,0,1,0-.111c.019-.128.039-.257.058-.385.046-.3.092-.61.139-.914q.081-.53.164-1.059.087-.563.174-1.126c.049-.324.1-.649.146-.973.066-.433.135-.866.2-1.3.036-.231.07-.462.1-.693q.075-.491.15-.982t.148-.973c.033-.218.069-.436.1-.654.051-.33.1-.661.15-.992q.1-.674.207-1.348c.048-.311.094-.623.144-.934a1.683,1.683,0,0,1,.063-.245c.084-.259.167-.519.274-.77.063-.149.135-.3.206-.441a5.854,5.854,0,0,1,.3-.557,7.455,7.455,0,0,1,.453-.657q.224-.282.471-.545a7.14,7.14,0,0,1,1.112-.958,9.287,9.287,0,0,1,1.3-.768c.146-.071.294-.138.441-.206a.125.125,0,0,1,.093-.023.085.085,0,0,1,.009.026q0,14.533,0,29.065a.158.158,0,0,1-.008.035.168.168,0,0,1-.107.016h-.565l-6.051,0h-.1a.162.162,0,0,0-.043.1q-.085.36-.167.72a7.09,7.09,0,0,1-.224.756q-.134.387-.3.758a9.08,9.08,0,0,1-.75,1.319,9.768,9.768,0,0,1-.954,1.181,12.624,12.624,0,0,1-1.051.986,14.842,14.842,0,0,1-1.311.978c-.134.091-.271.179-.407.268-.024.016-.05.029-.08.047-.025-.014-.051-.027-.075-.042q-.666-.424-1.294-.9c-.354-.27-.687-.565-1.013-.867a10,10,0,0,1-1.143-1.261,8.535,8.535,0,0,1-.846-1.329,9.17,9.17,0,0,1-.383-.841c-.1-.248-.184-.5-.256-.756-.054-.194-.094-.391-.14-.587q-.054-.227-.108-.455C176.236,124.551,176.228,124.53,176.217,124.5Zm16.223-9.541a.479.479,0,0,0,.008-.137q0-8.76,0-17.519c0-.032,0-.065,0-.1a.178.178,0,0,0-.013-.04c-.024.026-.043.044-.059.064-.164.206-.326.412-.491.618-.276.345-.557.685-.856,1.01-.14.153-.278.309-.407.472a3.681,3.681,0,0,0-.645,1.247,5.127,5.127,0,0,0-.15.734c-.051.35-.1.7-.152,1.051-.049.331-.1.661-.148.992-.056.379-.11.758-.166,1.137-.086.581-.175,1.162-.261,1.743-.05.337-.1.675-.148,1.012-.072.485-.147.97-.219,1.454-.05.337-.1.675-.147,1.012s-.1.68-.152,1.021q-.1.684-.2,1.368c0,.028,0,.057-.005.088.085.044.164.087.245.128a3.95,3.95,0,0,1,.993.68,3.186,3.186,0,0,1,.477.576,3.789,3.789,0,0,1,.419.919c.052.171.094.344.141.516a1.119,1.119,0,0,0,.054.179.455.455,0,0,0,.05,0l1.788-.213A.343.343,0,0,0,192.441,114.956Zm-17.667-2.773c0-.043-.008-.078-.013-.113-.014-.093-.029-.186-.042-.279-.03-.2-.059-.4-.09-.607-.049-.331-.1-.661-.147-.992-.036-.244-.069-.488-.105-.732-.049-.331-.1-.661-.149-.992q-.063-.424-.125-.848-.083-.564-.167-1.127-.076-.52-.152-1.041c-.031-.212-.065-.424-.1-.636q-.077-.52-.152-1.041-.055-.381-.11-.761-.041-.284-.084-.568c-.047-.315-.1-.629-.142-.944-.034-.234-.07-.469-.121-.7a3.678,3.678,0,0,0-.529-1.237,4.879,4.879,0,0,0-.5-.621q-.456-.494-.875-1.02-.277-.346-.553-.693a.135.135,0,0,0-.067-.059.542.542,0,0,0-.005.127q0,8.759,0,17.519c0,.029,0,.058,0,.088a.473.473,0,0,0,.011.058l.128.018.222.025.628.077.416.051.426.048a.451.451,0,0,0,.067,0c.009-.029.017-.053.024-.078.034-.129.069-.257.1-.386a4.007,4.007,0,0,1,.316-.846,3.206,3.206,0,0,1,.7-.927,3.934,3.934,0,0,1,.833-.571Zm-2.277,3.905a.47.47,0,0,0-.059-.006l-.194.007-.993.021-.565.009h-.039c-.039,0-.053.017-.054.054s0,.065,0,.1v6.965c0,.029,0,.058,0,.088a.5.5,0,0,0,.01.058.484.484,0,0,0,.128.008l2.776-.005h2.63c.032,0,.065,0,.1,0a.387.387,0,0,0,.057-.012c0-.047,0-.089,0-.13q-.025-.477-.021-.954a4.228,4.228,0,0,1,.033-.515,5.908,5.908,0,0,1,.18-.837c.107-.378.216-.755.324-1.132.01-.034.018-.068.027-.1a.264.264,0,0,0-.127-.03c-.264-.036-.528-.069-.791-.106a3.967,3.967,0,0,1-1.168-.359,3.9,3.9,0,0,1-2.117-2.6c-.039-.154-.077-.309-.115-.463C172.51,116.127,172.5,116.11,172.5,116.089Zm18,0c-.007.021-.012.036-.016.051-.036.145-.072.29-.107.435a3.86,3.86,0,0,1-.262.753,4,4,0,0,1-.405.686,3.827,3.827,0,0,1-.563.6,4.052,4.052,0,0,1-1.1.683,4.752,4.752,0,0,1-1.214.3l-.6.075c-.022,0-.047,0-.061.03,0,.013.005.028.01.044.063.218.124.437.189.655.09.305.184.609.251.92a4.731,4.731,0,0,1,.109.79c.011.25.006.5,0,.749,0,.149-.013.3-.018.447a.414.414,0,0,0,.01.069h.1l2.873.005h2.581c.026,0,.052,0,.078,0a.405.405,0,0,0,.059-.014q0-3.6,0-7.182a.538.538,0,0,0-.006-.056c-.012-.006-.02-.014-.029-.014l-1.742-.041A.405.405,0,0,0,190.5,116.091Zm-9,4.508.205-.254q.265-.324.531-.648a1.679,1.679,0,0,1,.6-.462c.135-.063.269-.131.4-.2.389-.2.765-.414,1.145-.626.022-.012.042-.028.064-.043-.007-.017-.011-.029-.017-.04L184,117.6a12.4,12.4,0,0,1-.574-1.106,18.341,18.341,0,0,1-.79-2.083c-.115-.365-.222-.733-.325-1.1-.117-.416-.227-.833-.337-1.25-.083-.317-.161-.636-.241-.953q-.1-.406-.207-.811c-.005-.02,0-.047-.034-.057-.008.024-.017.048-.024.072l-.268.906q-.169.569-.338,1.139c-.089.3-.178.6-.267.906s-.187.628-.281.942l-.216.728-.273.924a2.833,2.833,0,0,1-.17.476c-.051.1-.1.206-.144.309-.155.329-.322.652-.506.966l-.418.715c-.009.016-.016.034-.026.053a.4.4,0,0,0,.1.065l.323.181c.295.165.589.329.893.477.137.067.275.133.41.2a1.276,1.276,0,0,1,.35.261c.077.083.154.167.226.255.185.226.368.454.551.681C181.435,120.523,181.462,120.555,181.5,120.6Zm.638,9.623c.026-.023.044-.037.06-.052.164-.162.328-.323.491-.487s.3-.305.45-.459c.242-.25.475-.507.7-.773a7.59,7.59,0,0,0,.764-1.1c.187-.327.353-.665.508-1.008.26-.574.494-1.158.731-1.742a.748.748,0,0,0,.022-.074.241.241,0,0,0-.128-.015h-3.459c-.026,0-.052,0-.078,0a.389.389,0,0,0-.053.011.122.122,0,0,0-.011.032q0,2.816-.007,5.632A.243.243,0,0,0,182.136,130.222Zm-5-5.7c.01.031.016.059.027.085.157.381.311.763.471,1.143.181.431.374.856.59,1.272a8.068,8.068,0,0,0,1.09,1.609c.253.288.516.566.785.839.234.238.472.474.709.71.017.017.031.042.068.039v-.107q0-1.783,0-3.566,0-.351,0-.7,0-.609,0-1.218a.185.185,0,0,0-.013-.106.248.248,0,0,0-.123-.012h-3.469c-.029,0-.058,0-.088,0A.211.211,0,0,0,177.134,124.521Zm.981-4.845c-.019.035-.034.059-.045.086-.117.268-.234.535-.348.8a5.938,5.938,0,0,0-.259.734,5.1,5.1,0,0,0-.171,1.241c-.006.285.008.571.013.856a.213.213,0,0,0,.009.04c.025,0,.047,0,.069,0l1.334.01.574.006,1.48.007.092,0a.177.177,0,0,0,.027-.1c.012-.126.025-.252.035-.378a2.693,2.693,0,0,0-.053-.861,3.055,3.055,0,0,0-.557-1.126,3.28,3.28,0,0,0-.663-.641,3.2,3.2,0,0,0-.935-.491l-.371-.117Zm7.566,3.761a1.085,1.085,0,0,0,.013-.149c0-.117,0-.233.008-.35a6.545,6.545,0,0,0-.033-.914,4.711,4.711,0,0,0-.267-1.124c-.144-.393-.315-.775-.488-1.156a.578.578,0,0,0-.039-.063.384.384,0,0,0-.044.008c-.127.039-.255.076-.381.119-.147.05-.3.095-.439.158a3.411,3.411,0,0,0-1.245.929,2.961,2.961,0,0,0-.66,1.307,2.2,2.2,0,0,0-.052.464c0,.237.027.473.05.709,0,.028.011.056.017.087.034,0,.063,0,.092,0l.321,0,1.334-.01,1.12-.007.594,0Z" transform="translate(-27.774 -34.593)" fill="#5a598e"/>
  </g>
</svg>
